<?xml version="1.0" encoding="utf-8"?>
<!-- Generator: Adobe Illustrator 19.2.0, SVG Export Plug-In . SVG Version: 6.00 Build 0)  -->
<svg version="1.1" id="Layer_1" xmlns="http://www.w3.org/2000/svg" xmlns:xlink="http://www.w3.org/1999/xlink" x="0px" y="0px"
	 viewBox="0 0 1600 1100" style="enable-background:new 0 0 1600 1100;" xml:space="preserve">
<style type="text/css">
	.st0{fill:#ED2224;}
	.st1{clip-path:url(#SVGID_2_);}
	.st2{fill:#BB2828;}
</style>
<rect class="st0" width="1600" height="1100"/>
<g>
	<defs>
		<rect id="SVGID_1_" width="1600" height="1100"/>
	</defs>
	<clipPath id="SVGID_2_">
		<use xlink:href="#SVGID_1_"  style="overflow:visible;"/>
	</clipPath>
	<g class="st1">
		<g>
			<polygon class="st2" points="684.2,-923.7 -2262.5,2023 -2170.6,2023 776.1,-923.7 			"/>
			<polygon class="st2" points="575.3,-923.7 -2371.4,2023 -2325.4,2023 621.2,-923.7 			"/>
			<polygon class="st2" points="468.2,-923.7 -2478.4,2023 -2432.5,2023 514.2,-923.7 			"/>
			<polygon class="st2" points="356.1,-923.7 -2590.6,2023 -2567.6,2023 379.1,-923.7 			"/>
			<polygon class="st2" points="801.6,-923.7 -2145.1,2023 -2053.2,2023 893.5,-923.7 			"/>
			<g>
				<polygon class="st2" points="-1268.5,2023 1678.1,-923.7 1586.2,-923.7 -1360.4,2023 				"/>
				<polygon class="st2" points="-1159.7,2023 1787,-923.7 1741,-923.7 -1205.6,2023 				"/>
				<polygon class="st2" points="-1052.6,2023 1894.1,-923.7 1848.1,-923.7 -1098.6,2023 				"/>
				<polygon class="st2" points="-940.5,2023 2006.2,-923.7 1983.2,-923.7 -963.5,2023 				"/>
				<polygon class="st2" points="-1386,2023 1560.7,-923.7 1468.8,-923.7 -1477.9,2023 				"/>
			</g>
			<polygon class="st2" points="918.9,-923.7 -2027.8,2023 -1498.6,2023 1448,-923.7 			"/>
		</g>
		<g>
			<polygon class="st2" points="2868.5,-923.7 -78.1,2023 13.8,2023 2960.4,-923.7 			"/>
			<polygon class="st2" points="2759.7,-923.7 -187,2023 -141,2023 2805.6,-923.7 			"/>
			<polygon class="st2" points="2652.6,-923.7 -294.1,2023 -248.1,2023 2698.6,-923.7 			"/>
			<polygon class="st2" points="2540.5,-923.7 -406.2,2023 -383.2,2023 2563.4,-923.7 			"/>
			<polygon class="st2" points="2986,-923.7 39.3,2023 131.2,2023 3077.9,-923.7 			"/>
			<g>
				<polygon class="st2" points="915.8,2023 3862.5,-923.7 3770.6,-923.7 823.9,2023 				"/>
				<polygon class="st2" points="1024.7,2023 3971.4,-923.7 3925.4,-923.7 978.8,2023 				"/>
				<polygon class="st2" points="1131.8,2023 4078.4,-923.7 4032.5,-923.7 1085.8,2023 				"/>
				<polygon class="st2" points="1243.9,2023 4190.6,-923.7 4167.6,-923.7 1220.9,2023 				"/>
				<polygon class="st2" points="798.4,2023 3745.1,-923.7 3653.2,-923.7 706.5,2023 				"/>
			</g>
			<polygon class="st2" points="3103.3,-923.7 156.6,2023 685.7,2023 3632.4,-923.7 			"/>
		</g>
	</g>
</g>
</svg>
